<svg width="24" height="42" viewBox="0 0 24 42" fill="none" xmlns="http://www.w3.org/2000/svg">
<path id="Vector" d="M23.0118 0.914958C23.5977 1.50098 23.9268 2.29569 23.9268 3.12433C23.9268 3.95297 23.5977 4.74768 23.0118 5.33371L7.54308 20.8025L23.0118 36.2712C23.5811 36.8606 23.8961 37.65 23.8889 38.4693C23.8818 39.2887 23.5532 40.0725 22.9738 40.6519C22.3944 41.2313 21.6106 41.5599 20.7912 41.5671C19.9718 41.5742 19.1825 41.2592 18.5931 40.69L0.914957 23.0118C0.32911 22.4258 0 21.6311 0 20.8025C0 19.9738 0.32911 19.1791 0.914957 18.5931L18.5931 0.914958C19.1791 0.329111 19.9738 0 20.8025 0C21.6311 0 22.4258 0.329111 23.0118 0.914958Z" fill="url(#paint0_radial_37_914)"/>
<defs>
<radialGradient id="paint0_radial_37_914" cx="0" cy="0" r="1" gradientUnits="userSpaceOnUse" gradientTransform="translate(11.9634 20.7836) scale(11.9634 20.7836)">
<stop stop-color="#6A28EB"/>
<stop offset="1" stop-color="#3494E6"/>
</radialGradient>
</defs>
</svg>
