<svg width="24" height="42" viewBox="0 0 24 42" fill="none" xmlns="http://www.w3.org/2000/svg">
<path id="Vector" d="M0.914926 40.6522C0.329079 40.0662 -3.22461e-05 39.2714 -3.22461e-05 38.4428C-3.22461e-05 37.6142 0.329079 36.8195 0.914926 36.2334L16.3837 20.7647L0.914926 5.29593C0.345682 4.70655 0.0306996 3.91716 0.0378197 3.0978C0.0449397 2.27843 0.373592 1.49464 0.952992 0.915242C1.53239 0.335842 2.31618 0.00719223 3.13555 7.2169e-05C3.95491 -0.00704789 4.74429 0.307934 5.33367 0.877178L23.0118 18.5553C23.5976 19.1413 23.9268 19.936 23.9268 20.7647C23.9268 21.5933 23.5976 22.388 23.0118 22.9741L5.33367 40.6522C4.74765 41.238 3.95294 41.5671 3.1243 41.5671C2.29566 41.5671 1.50095 41.238 0.914926 40.6522Z" fill="url(#paint0_radial_37_915)"/>
<defs>
<radialGradient id="paint0_radial_37_915" cx="0" cy="0" r="1" gradientUnits="userSpaceOnUse" gradientTransform="translate(11.9634 20.7835) rotate(180) scale(11.9634 20.7836)">
<stop stop-color="#6A28EB"/>
<stop offset="1" stop-color="#3494E6"/>
</radialGradient>
</defs>
</svg>
